# xmcd
#
# Track frame offsets: 
#        150
#        16080
#        36040
#        55682
#        74289
#        94180
#        114112
#        128268
#        150331
#        170007
#        184938
#        199708
#        215654
#        232313
#        250078
#        264154
#        279742
#
# Disc length: 3924 seconds
#
# Revision: 0
# Processed by: cddbd v1.5.2PL0 Copyright (c) Steve Scherf et al.
# Submitted via: ExactAudioCopy v0.99pb4
#
DISCID=e10f5211
DTITLE=Savage-C and Skuba - Sedated
DYEAR=2013
DGENRE=Rap
TTITLE0=Cult Leaders
TTITLE1=Too High For My Own Good
TTITLE2=Magnifying Glass
TTITLE3=Sedated
TTITLE4=Moonrocks feat K Dinero
TTITLE5=The Plague
TTITLE6=3AM
TTITLE7=Trippin' Over Brooms
TTITLE8=A Hundred To One
TTITLE9=Okay To Drive
TTITLE10=Drug Tornado
TTITLE11=Suboxone
TTITLE12=Valentine's Day Massacre
TTITLE13=Anger Management
TTITLE14=Columbine Trench Coats
TTITLE15=Can't Stand Up feat Mista Cane
TTITLE16=Guide Dogs
EXTD=
EXTT0=
EXTT1=
EXTT2=
EXTT3=
EXTT4=
EXTT5=
EXTT6=
EXTT7=
EXTT8=
EXTT9=
EXTT10=
EXTT11=
EXTT12=
EXTT13=
EXTT14=
EXTT15=
EXTT16=
PLAYORDER=
